# xmcd
#
# Track frame offsets: 
#        150
#        10235
#        22535
#        32960
#        43102
#        53097
#        62197
#        70572
#        81842
#        91500
#        98880
#        108785
#
# Disc length: 1581 seconds
#
# Revision: 3
# Processed by: cddbd v1.5.2PL0 Copyright (c) Steve Scherf et al.
# Submitted via: ExactAudioCopy v1.1
#
DISCID=84062b0c
DTITLE=Buck Owens and his Buckaroos - Christmas With Buck Owens (1965)
DYEAR=1990
DGENRE=Country
TTITLE0=Santa Looked A Lot Like Daddy
TTITLE1=Blue Christmas Lights
TTITLE2=Christmas Ain't Christmas
TTITLE3=Jingle Bells
TTITLE4=All I Want For Christmas Dear Is You
TTITLE5=Santa's Gonna Come In A Stagecoach
TTITLE6=Christmas Time's A Comin'
TTITLE7=Blue Christmas Tree
TTITLE8=Here Comes Santa Claus Again
TTITLE9=Christmas Morning
TTITLE10=It's Christmas Time For Everyone But Me
TTITLE11=Because It's Christmas Time
EXTD=
EXTT0=
EXTT1=
EXTT2=
EXTT3=
EXTT4=
EXTT5=
EXTT6=
EXTT7=
EXTT8=
EXTT9=
EXTT10=
EXTT11=
PLAYORDER=
